<svg width="1364" height="630" viewBox="0 0 1364 630" fill="none" xmlns="http://www.w3.org/2000/svg">
<path d="M455.399 482.78C445.042 490 430.291 499.103 411.46 506.951C355.28 530.179 304.436 523.587 285.919 520.448C228.484 510.717 191.136 481.211 183.603 474.933C173.56 466.771 147.51 443.857 128.679 406.502C125.541 400.224 78.463 330.852 120.833 224.439C163.203 118.027 266.146 88.2063 335.822 83.1839C414.284 77.2197 486.47 109.865 547.985 141.883C568.386 152.556 588.472 164.17 608.559 175.471C609.186 175.471 609.814 175.785 610.756 175.785C612.325 176.099 612.953 176.413 613.267 176.099C613.894 175.785 613.58 174.529 613.267 173.587C612.953 172.332 612.325 171.704 612.011 171.076C588.158 150.673 565.247 129.327 540.453 110.179C461.99 50.2242 373.17 19.4619 274.934 28.2511C189.253 36.0987 97.608 91.3453 49.5886 182.063C41.7423 197.13 15.3788 250.493 16.948 323.318C18.8312 419.686 67.792 485.292 83.1708 504.126C143.744 579.462 227.229 607.713 281.839 613.677C319.501 617.758 353.397 613.363 364.068 611.794C404.555 605.83 436.882 592.96 458.224 582.601C457.282 549.641 456.341 516.054 455.399 482.78Z" fill="#F00C18"/>
<path d="M909.542 141.883C920.527 134.664 936.534 125.874 956.934 118.341C1018.45 96.0538 1071.18 105.785 1082.47 107.982C1139.6 119.283 1176 149.731 1183.22 156.009C1192.95 164.484 1218.37 187.713 1236.26 226.009C1239.09 232.287 1284.6 302.601 1239.4 408.072C1194.52 513.543 1090.95 540.538 1021.27 543.991C942.497 548.072 871.566 513.856 810.993 479.955C790.907 468.655 771.134 456.726 751.361 445.112C750.733 445.112 750.106 444.798 749.164 444.798C747.595 444.484 746.967 444.17 746.653 444.484C746.026 444.798 746.34 446.054 746.653 446.995C746.967 448.251 747.281 448.879 747.909 449.507C771.134 470.538 793.417 492.511 817.898 511.973C894.478 573.498 982.356 606.457 1080.59 600.179C1166.59 594.529 1259.17 541.48 1309.39 452.332C1317.86 437.265 1345.48 384.843 1345.8 312.018C1346.42 215.65 1299.03 149.103 1284.28 129.955C1225.59 53.3632 1143.05 22.9148 1088.75 15.695C1052.35 10.6726 1020.33 13.8116 1006.84 15.3811C962.27 21.0314 927.746 34.843 905.462 45.8296C907.032 77.2197 908.287 109.552 909.542 141.883Z" fill="#FEE719"/>
<path d="M885.377 30.4484C858.7 41.4349 830.767 49.9103 805.972 63.7219C745.399 96.9955 702.087 148.475 665.367 205.605C633.354 255.202 604.166 306.682 570.897 355.65C541.709 398.341 509.069 437.892 470.465 470.852L472.976 575.695C490.238 562.825 517.543 540.852 546.731 509.776C596.947 456.099 610.443 420.314 708.678 234.798C708.678 234.798 779.609 100.448 853.992 55.8744C862.466 50.852 870.94 45.8295 870.94 45.8295C877.845 42.0627 883.494 38.6098 888.202 36.0986C889.771 35.4708 890.712 34.2152 890.712 33.2735C890.399 31.704 888.202 29.8206 885.377 30.4484Z" fill="#19A5FF"/>
<path d="M478.937 593.274C505.615 582.287 533.548 574.126 558.656 560.314C619.229 527.04 662.854 475.874 699.575 418.431C731.588 368.834 761.09 317.354 794.358 268.7C823.547 226.009 856.187 186.771 894.791 153.812L892.28 48.9686C866.23 67.8027 841.436 90.0897 818.211 114.888C749.478 188.027 706.48 277.175 665.993 367.578C661.913 376.368 653.125 399.283 636.805 427.848C617.974 460.807 599.143 484.35 589.099 496.278C579.998 506.951 566.502 522.96 546.415 540.538C546.415 540.538 520.68 562.825 493.061 578.52C481.762 584.798 476.427 585.112 475.799 588.251C476.113 588.879 476.427 590.448 478.937 593.274Z" fill="#13D1FF"/>
<path d="M149.08 360.986V352.825L159.751 350.942V275.291L149.08 273.408V265.247H191.764C198.669 265.247 204.632 266.188 209.34 268.386C214.047 270.583 217.814 273.408 220.324 277.489C222.835 281.569 224.091 286.278 224.091 291.928C224.091 297.578 222.835 302.287 220.324 306.054C217.814 309.821 214.361 312.646 209.967 314.843C205.573 317.04 200.238 317.982 193.961 317.982L172.619 318.296V350.942L183.29 352.825V360.986H149.08ZM172.933 307.937H190.509C197.727 307.937 203.063 306.682 206.201 303.856C209.34 301.031 211.223 296.951 211.223 291.614C211.223 286.592 209.653 282.511 206.515 279.686C203.376 276.861 198.355 275.291 191.764 275.291H172.619V307.937H172.933ZM212.478 360.986L191.136 312.96H204.004L221.58 351.256L228.171 352.511V360.986H212.478Z" fill="black"/>
<path d="M239.469 360.986V352.825L250.14 350.942V275.291L239.469 273.408V264.933H310.399V287.847H300.042L298.473 274.664H263.008V306.054H298.473V316.412H263.008V351.255H300.67L302.239 338.072H312.596V360.986H239.469Z" fill="black"/>
<path d="M325.15 360.986V352.825L335.821 350.942V275.291L325.15 273.408V264.933H335.821H353.083L383.841 337.758H384.155L413.97 264.933H442.845V273.408L432.174 275.291V350.942L442.845 352.825V360.986H408.321V352.825L419.62 350.942V323.004V282.825H419.306L388.235 357.847H379.447L347.12 283.139H346.806L347.12 323.318V351.255L358.733 353.139V361.3H325.15V360.986Z" fill="black"/>
<path d="M493.062 362.556C486.785 362.556 481.45 361.3 476.428 359.103C471.407 356.592 467.326 353.453 463.874 349.058C460.422 344.664 457.911 339.641 456.028 333.677C454.145 327.713 453.203 321.121 453.203 313.901V312.646C453.203 305.426 454.145 299.148 456.028 293.184C457.911 287.22 460.422 282.197 463.874 277.803C467.326 273.408 471.407 269.955 476.428 267.758C481.45 265.247 486.785 264.305 493.062 264.305C499.653 264.305 505.303 265.56 510.324 267.758C515.346 270.269 519.426 273.408 522.878 277.803C526.331 282.197 528.841 287.22 530.411 293.184C531.98 299.148 532.922 305.74 532.922 312.646V313.901C532.922 321.121 531.98 327.713 530.411 333.677C528.841 339.641 526.017 344.664 522.878 349.058C519.426 353.453 515.346 356.592 510.324 359.103C505.303 361.3 499.653 362.556 493.062 362.556ZM493.062 351.569C499.339 351.569 504.675 350 508.441 346.861C512.521 343.722 515.346 339.327 517.229 333.677C519.112 328.027 520.054 321.435 520.054 313.901V312.332C520.054 304.798 519.112 298.206 517.229 292.556C515.346 286.906 512.521 282.511 508.441 279.372C504.361 276.233 499.339 274.664 493.062 274.664C487.413 274.664 482.391 276.233 478.311 279.372C474.231 282.511 471.407 286.906 469.21 292.556C467.013 298.206 466.071 304.798 466.071 312.018V313.587C466.071 321.121 467.013 327.713 469.21 333.363C471.407 339.013 474.231 343.408 478.311 346.547C482.391 350 487.099 351.569 493.062 351.569Z" fill="black"/>
<path d="M848.655 362.556C842.692 362.556 837.042 361.614 831.707 360.045C826.371 358.475 821.036 355.65 816.328 352.197V331.794H826.371L828.568 346.861C831.393 348.744 834.532 350 837.984 350.942C841.436 351.883 844.889 352.511 848.655 352.511C853.049 352.511 856.815 351.883 859.954 350.628C863.092 349.372 865.289 347.489 866.858 344.978C868.428 342.466 869.369 339.955 869.369 336.816C869.369 333.991 868.741 331.166 867.172 328.969C865.917 326.771 863.406 324.888 860.267 323.004C857.129 321.435 852.735 319.865 847.086 318.61C840.495 317.04 834.845 315.157 830.451 312.332C826.058 309.821 822.605 306.682 820.094 302.915C817.897 299.148 816.642 295.067 816.642 290.359C816.642 285.336 817.897 280.942 820.722 276.861C823.547 272.78 826.999 269.641 831.707 267.444C836.415 265.247 842.064 263.991 848.341 263.991C854.932 263.991 860.895 264.933 866.231 267.13C871.252 269.327 875.646 271.525 879.098 274.664V293.812H869.055L866.858 280C864.975 278.43 862.464 277.175 859.326 275.919C856.501 274.978 852.735 274.35 848.341 274.35C844.575 274.35 841.436 274.978 838.612 276.233C835.787 277.489 833.59 279.372 832.021 281.569C830.451 283.767 829.51 286.592 829.51 289.731C829.51 292.556 830.138 295.067 831.707 296.951C833.276 299.148 835.473 300.717 838.612 302.287C841.75 303.856 846.144 305.426 851.479 306.682C861.523 309.193 869.369 312.96 874.391 317.668C879.726 322.691 882.237 328.655 882.237 335.874C882.237 340.897 880.982 345.605 878.157 349.686C875.332 353.767 871.566 356.906 866.544 359.103C861.523 361.3 855.246 362.556 848.655 362.556Z" fill="black"/>
<path d="M916.132 360.987V352.825L926.803 350.942V274.978H905.148L903.264 288.161H893.535V264.933H972.94V288.161H963.524L961.641 274.978H939.985V350.942L950.656 352.825V360.987H916.132Z" fill="black"/>
<path d="M967.291 360.986V352.825L974.51 351.883L1008.09 265.247H1019.08L1052.03 351.883L1058.94 352.825V360.986H1031.32V352.825L1038.54 351.569L1032.26 333.991H993.968L987.378 351.569L994.596 352.825V360.986H967.291ZM998.048 323.004H1028.49L1014.37 284.081L1013.43 281.883H1013.11L1012.17 284.081L998.048 323.004Z" fill="black"/>
<path d="M1068.04 360.986V352.825L1078.71 350.942V275.291L1068.04 273.408V265.247H1110.72C1117.63 265.247 1123.59 266.188 1128.3 268.386C1133 270.583 1136.77 273.408 1139.28 277.489C1141.79 281.569 1143.05 286.278 1143.05 291.928C1143.05 297.578 1141.79 302.287 1139.28 306.054C1136.77 309.821 1133.32 312.646 1128.92 314.843C1124.53 317.04 1119.2 317.982 1112.92 317.982L1091.58 318.296V350.942L1102.25 352.825V360.986H1068.04ZM1091.89 307.937H1109.47C1116.68 307.937 1122.02 306.682 1125.16 303.856C1128.3 301.031 1130.18 296.951 1130.18 291.614C1130.18 286.592 1128.61 282.511 1125.47 279.686C1122.33 276.861 1117.31 275.291 1110.72 275.291H1091.58V307.937H1091.89ZM1131.44 360.986L1110.09 312.96H1122.96L1140.54 351.256L1147.13 352.511V360.986H1131.44Z" fill="black"/>
<path d="M1176.63 360.987V352.825L1187.3 350.942V274.978H1165.65L1163.76 288.161H1154.03V264.933H1233.75V288.161H1224.02L1222.14 274.978H1200.48V350.942L1211.15 352.825V360.987H1176.63Z" fill="black"/>
</svg>
