<svg width="38" height="31" viewBox="0 0 38 31" fill="none" xmlns="http://www.w3.org/2000/svg">
<path d="M12 23.25C12.4533 23.8815 13.0267 24.4556 13.72 24.9722C14.28 25.4028 15 25.8046 15.88 26.1778C16.76 26.5222 17.8 26.6944 19 26.6944C19.9067 26.6944 20.7067 26.5796 21.4 26.35C22.0933 26.0917 22.68 25.7616 23.16 25.3597C23.64 24.9292 24 24.4412 24.24 23.8958C24.48 23.3505 24.6 22.7764 24.6 22.1736C24.6 21.3412 24.3867 20.6667 23.96 20.15C23.5333 19.6046 22.9733 19.1454 22.28 18.7722C21.5867 18.3991 20.8 18.0833 19.92 17.825C19.04 17.5667 18.1333 17.294 17.2 17.0069C16.2667 16.6912 15.36 16.3324 14.48 15.9306C13.6 15.5 12.8133 14.969 12.12 14.3375C11.4267 13.6773 10.8667 12.8736 10.44 11.9264C10.0133 10.9792 9.8 9.80232 9.8 8.39583C9.8 7.27639 10.0133 6.21435 10.44 5.20972C10.8933 4.17639 11.5333 3.27222 12.36 2.49722C13.1867 1.72222 14.1867 1.11945 15.36 0.68889C16.56 0.22963 17.9067 0 19.4 0C20.8667 0 22.1467 0.200926 23.24 0.602778C24.3333 1.00463 25.24 1.44954 25.96 1.9375C26.84 2.51157 27.5867 3.15741 28.2 3.875L25.2 7.10417C24.8 6.5875 24.3067 6.11389 23.72 5.68333C23.24 5.33889 22.64 5.02315 21.92 4.73611C21.2 4.44908 20.36 4.30556 19.4 4.30556C17.6933 4.30556 16.4 4.72176 15.52 5.55417C14.64 6.35787 14.2 7.30509 14.2 8.39583C14.2 9.22824 14.4133 9.91713 14.84 10.4625C15.2667 10.9792 15.8267 11.4241 16.52 11.7972C17.2133 12.1704 18 12.4861 18.88 12.7444C19.76 13.0028 20.6667 13.2898 21.6 13.6056C22.5333 13.8926 23.44 14.2514 24.32 14.6819C25.2 15.0838 25.9867 15.6148 26.68 16.275C27.3733 16.9065 27.9333 17.6958 28.36 18.6431C28.7867 19.5903 29 20.7671 29 22.1736C29 23.3505 28.76 24.4843 28.28 25.575C27.8267 26.637 27.1733 27.5699 26.32 28.3736C25.4667 29.1773 24.4133 29.8232 23.16 30.3111C21.9333 30.7704 20.5467 31 19 31C17.2933 31 15.8133 30.7704 14.56 30.3111C13.3333 29.8232 12.2933 29.2921 11.44 28.7181C10.48 28.0579 9.66667 27.3116 9 26.4792L12 23.25Z" fill="#B3B3B3"/>
<path fill-rule="evenodd" clip-rule="evenodd" d="M38 18H0V13H38V18Z" fill="#B3B3B3"/>
</svg>
