<svg width="118" height="28" viewBox="0 0 118 28" fill="none" xmlns="http://www.w3.org/2000/svg">
<path d="M62.4863 15.4798C62.4863 12.764 63.435 10.4685 65.3324 8.5933C67.2655 6.71811 69.6641 5.78052 72.5281 5.78052C75.1056 5.78052 77.3431 6.58879 79.2404 8.20533V6.26548H83.3753V24.694H79.2404V22.8027C77.3789 24.3869 75.1414 25.179 72.5281 25.179C69.6641 25.179 67.2655 24.2576 65.3324 22.4147C63.435 20.5395 62.4863 18.2279 62.4863 15.4798ZM77.361 11.2606C76.1796 10.0967 74.7118 9.51473 72.9576 9.51473C71.2035 9.51473 69.7357 10.0967 68.5543 11.2606C67.3729 12.3922 66.7823 13.7986 66.7823 15.4798C66.7823 17.161 67.3729 18.5835 68.5543 19.7474C69.7357 20.879 71.2035 21.4448 72.9576 21.4448C74.7118 21.4448 76.1796 20.879 77.361 19.7474C78.5423 18.5835 79.133 17.161 79.133 15.4798C79.133 13.7986 78.5423 12.3922 77.361 11.2606Z" fill="#EAEAEA"/>
<path d="M6.30903 27.1736C4.56775 27.1736 3.13936 26.7682 2.02385 25.9573C0.90834 25.1219 0.350586 23.8933 0.350586 22.2716C0.350586 19.9619 1.42528 18.3279 3.57468 17.3696C5.72407 16.3868 8.21356 15.8953 11.0431 15.8953H13.7775V13.0573C13.7775 11.7796 13.6143 10.7968 13.2878 10.1088C12.9885 9.3962 12.5123 8.90477 11.8594 8.63449C11.2064 8.33963 10.3221 8.1922 9.20663 8.1922C7.92788 8.1922 6.97562 8.42563 6.34984 8.89249C5.72407 9.33477 5.41118 9.93677 5.41118 10.6985C5.41118 11.4111 5.79209 11.8779 6.5539 12.0991C6.5539 12.7133 6.29543 13.2539 5.77849 13.7208C5.26154 14.1876 4.64937 14.4211 3.94198 14.4211C3.18017 14.4211 2.568 14.2368 2.10547 13.8682C1.64294 13.4751 1.41168 12.8853 1.41168 12.0991C1.41168 10.6739 2.2007 9.53135 3.77873 8.67135C5.35677 7.81135 7.32931 7.38135 9.69637 7.38135C15.1379 7.38135 17.8586 9.51906 17.8586 13.7945V24.3356C17.8586 24.8762 17.9811 25.2939 18.2259 25.5888C18.498 25.8591 18.8789 25.9942 19.3686 25.9942C19.8312 25.9942 20.1985 25.8591 20.4705 25.5888C20.7426 25.2939 20.8787 24.9008 20.8787 24.4093H21.7357C21.7357 25.2693 21.4228 25.9451 20.797 26.4365C20.1985 26.9279 19.355 27.1736 18.2667 27.1736C17.0152 27.1736 15.9541 26.8542 15.0835 26.2153C14.24 25.5519 13.8047 24.5322 13.7775 23.1562C13.1245 24.4093 12.1178 25.3922 10.7575 26.1048C9.42429 26.8173 7.94148 27.1736 6.30903 27.1736ZM8.55365 25.5519C9.28826 25.5519 10.0365 25.3553 10.7983 24.9622C11.5873 24.5691 12.2539 24.0039 12.798 23.2668C13.3422 22.5051 13.6687 21.5959 13.7775 20.5393V16.7062H11.0431C8.81213 16.7062 7.13886 17.1608 6.02335 18.0699C4.93505 18.9545 4.3909 20.2076 4.3909 21.8293C4.3909 23.1808 4.7446 24.1391 5.452 24.7042C6.15939 25.2693 7.19328 25.5519 8.55365 25.5519Z" fill="#EAEAEA" fill-opacity="0.9"/>
</svg>
