<svg width="116" height="36" viewBox="0 0 116 36" fill="none" xmlns="http://www.w3.org/2000/svg">
<g clip-path="url(#clip0_83_1181)">
<path d="M71.9482 28.1243C65.2153 33.2271 55.4564 35.9496 47.0542 35.9496C35.2728 35.9496 24.6666 31.4691 16.6426 24.0172C16.0122 23.4312 16.577 22.6326 17.3336 23.0889C25.993 28.2695 36.7001 31.3861 47.7602 31.3861C55.2194 31.3861 63.4249 29.7993 70.9698 26.5064C72.1096 26.0085 73.0628 27.2738 71.9482 28.1243Z" fill="#353546"/>
<path d="M74.7474 24.8314C73.89 23.7009 69.0584 24.2973 66.8898 24.5618C66.2291 24.6447 66.1282 24.0536 66.7233 23.6283C70.5714 20.8436 76.8857 21.6474 77.6221 22.5808C78.3584 23.5194 77.4304 30.0276 73.8143 33.1338C73.2596 33.6109 72.73 33.3568 72.9771 32.7241C73.7891 30.6395 75.6098 25.9671 74.7474 24.8314Z" fill="#353546"/>
<path d="M67.0409 3.96912V1.26215C67.0409 0.852481 67.3435 0.577637 67.7066 0.577637H79.493C79.8712 0.577637 80.1738 0.857667 80.1738 1.26215V3.58018C80.1688 3.96912 79.8511 4.47732 79.2862 5.28111L73.1787 14.2473C75.4482 14.1902 77.8438 14.5377 79.9015 15.7304C80.3655 16.0001 80.4916 16.3942 80.5269 16.7831V19.6716C80.5269 20.0657 80.1032 20.5272 79.6594 20.2887C76.0332 18.3336 71.2168 18.121 67.2073 20.3094C66.7988 20.5376 66.3701 20.0812 66.3701 19.6871V16.9439C66.3701 16.5031 66.3752 15.7511 66.8038 15.0822L73.8797 4.64845H67.7217C67.3435 4.64845 67.0409 4.37361 67.0409 3.96912Z" fill="#353546"/>
<path d="M24.0462 20.8591H20.4603C20.1174 20.8332 19.845 20.5687 19.8198 20.2317V1.30886C19.8198 0.930304 20.1275 0.629528 20.5108 0.629528H23.8545C24.2025 0.645075 24.4799 0.919929 24.5051 1.26219V3.73579H24.5707C25.4432 1.34516 27.0823 0.230225 29.2913 0.230225C31.5356 0.230225 32.9376 1.34516 33.9463 3.73579C34.8138 1.34516 36.7857 0.230225 38.8989 0.230225C40.4018 0.230225 42.046 0.868071 43.0496 2.29934C44.1844 3.89136 43.9524 6.20421 43.9524 8.23184L43.9473 20.1746C43.9473 20.5532 43.6397 20.8591 43.2564 20.8591H39.6756C39.3175 20.8332 39.03 20.5376 39.03 20.1746V10.1454C39.03 9.34677 39.1006 7.35545 38.9292 6.59832C38.6619 5.32782 37.86 4.97 36.821 4.97C35.9536 4.97 35.0458 5.56636 34.6776 6.52054C34.3094 7.47472 34.3447 9.07193 34.3447 10.1454V20.1746C34.3447 20.5532 34.0371 20.8591 33.6538 20.8591H30.073C29.7099 20.8332 29.4275 20.5376 29.4275 20.1746L29.4224 10.1454C29.4224 8.03478 29.7603 4.92851 27.2134 4.92851C24.6362 4.92851 24.7371 7.95699 24.7371 10.1454V20.1746C24.7371 20.5532 24.4295 20.8591 24.0462 20.8591Z" fill="#353546"/>
<path d="M90.3211 0.230225C95.6419 0.230225 98.5216 4.92851 98.5216 10.9025C98.5216 16.6742 95.3393 21.2533 90.3211 21.2533C85.0962 21.2533 82.2517 16.555 82.2517 10.7003C82.2517 4.80924 85.1315 0.230225 90.3211 0.230225ZM90.3514 4.09361C87.7086 4.09361 87.5422 7.79623 87.5422 10.1039C87.5422 12.4167 87.5069 17.3536 90.3211 17.3536C93.1 17.3536 93.2311 13.3709 93.2311 10.944C93.2311 9.34677 93.1656 7.43842 92.6965 5.92418C92.2931 4.607 91.4912 4.09361 90.3514 4.09361Z" fill="#353546"/>
<path d="M105.421 20.8591H101.85C101.492 20.8332 101.205 20.5376 101.205 20.1746L101.2 1.24663C101.23 0.899186 101.528 0.629528 101.891 0.629528H105.214C105.527 0.645075 105.784 0.862887 105.855 1.15847V4.05212H105.92C106.924 1.46443 108.331 0.230225 110.807 0.230225C112.416 0.230225 113.985 0.826586 114.993 2.4601C115.931 3.97434 115.931 6.52054 115.931 8.35111V20.2628C115.891 20.5947 115.593 20.8591 115.24 20.8591H111.645C111.317 20.8332 111.044 20.5843 111.009 20.2628V9.98462C111.009 7.91551 111.241 4.88703 108.765 4.88703C107.892 4.88703 107.09 5.48858 106.692 6.40127C106.188 7.55769 106.122 8.70893 106.122 9.98462V20.1746C106.117 20.5532 105.804 20.8591 105.421 20.8591Z" fill="#353546"/>
<path d="M57.6452 11.8202V11.0216C55.0529 11.0216 52.3144 11.5921 52.3144 14.7346C52.3144 16.3267 53.1163 17.4053 54.4931 17.4053C55.5018 17.4053 56.4045 16.7674 56.9744 15.7303C57.6805 14.4546 57.6452 13.2567 57.6452 11.8202ZM61.2613 20.8071C61.0243 21.0249 60.6813 21.0405 60.414 20.8953C59.2238 19.8789 59.012 19.407 58.3563 18.4373C56.3894 20.5012 54.9974 21.1183 52.4455 21.1183C49.4296 21.1183 47.0793 19.2047 47.0793 15.3725C47.0793 12.3803 48.6579 10.3423 50.9022 9.34663C52.849 8.46505 55.5673 8.30948 57.6452 8.06575V7.58867C57.6452 6.71227 57.7108 5.67512 57.2115 4.91801C56.7727 4.23867 55.9355 3.95864 55.1992 3.95864C53.8324 3.95864 52.6119 4.67946 52.3144 6.17295C52.2538 6.50484 52.0168 6.83155 51.694 6.8471L48.2141 6.46335C47.9216 6.39594 47.5988 6.15221 47.6795 5.69068C48.4814 1.3554 52.2891 0.048584 55.6985 0.048584C57.4435 0.048584 59.7231 0.525673 61.0999 1.88434C62.8449 3.55934 62.6785 5.79439 62.6785 8.22651V13.9723C62.6785 15.6992 63.3745 16.4563 64.0301 17.3897C64.2621 17.7216 64.3125 18.1209 64.02 18.3698C63.2887 18.9973 61.9876 20.1641 61.2714 20.8175L61.2613 20.8071Z" fill="#353546"/>
<path d="M10.6359 11.8202V11.0216C8.04364 11.0216 5.30509 11.5921 5.30509 14.7346C5.30509 16.3267 6.10698 17.4053 7.48382 17.4053C8.4925 17.4053 9.39526 16.7674 9.96517 15.7303C10.6712 14.4546 10.6359 13.2567 10.6359 11.8202ZM14.252 20.8071C14.015 21.0249 13.672 21.0405 13.4047 20.8953C12.2145 19.8789 12.0027 19.407 11.347 18.4373C9.38013 20.5012 7.98816 21.1183 5.43621 21.1183C2.42028 21.1183 0.0700684 19.2047 0.0700684 15.3725C0.0700684 12.3803 1.64864 10.3423 3.89294 9.34663C5.83969 8.46505 8.55806 8.30948 10.6359 8.06575V7.58867C10.6359 6.71227 10.7015 5.67512 10.2022 4.91801C9.76343 4.23867 8.92623 3.95864 8.1899 3.95864C6.82314 3.95864 5.60265 4.67946 5.30509 6.17295C5.24457 6.50484 5.00753 6.83155 4.68475 6.8471L1.20483 6.46335C0.912311 6.39594 0.589535 6.15221 0.670229 5.69068C1.47213 1.3554 5.27987 0.048584 8.68919 0.048584C10.4342 0.048584 12.7138 0.525673 14.0906 1.88434C15.8357 3.55934 15.6692 5.79439 15.6692 8.22651V13.9723C15.6692 15.6992 16.3652 16.4563 17.0208 17.3897C17.2528 17.7216 17.3033 18.1209 17.0108 18.3698C16.2795 18.9973 14.9783 20.1641 14.2621 20.8175L14.252 20.8071Z" fill="#353546"/>
</g>
<defs>
<clipPath id="clip0_83_1181">
<rect width="116" height="36" fill="white"/>
</clipPath>
</defs>
</svg>
