<svg width="258" height="42" viewBox="0 0 258 42" fill="none" xmlns="http://www.w3.org/2000/svg">
<path fill-rule="evenodd" clip-rule="evenodd" d="M13.1761 33.2839L13.1758 23.826H11.2573L6.18189 33.2839H0L6.66675 20.9038L0.8715 9H6.79194L11.1926 18.165H13.1758L13.1761 9H18.726L18.7249 18.165H20.708L25.1101 9H31.0308L25.2353 20.9038L31.9023 33.2839H25.7201L20.6433 23.826H18.7249L18.726 33.2839H13.1761Z" fill="white" fill-opacity="0.7"/>
<path fill-rule="evenodd" clip-rule="evenodd" d="M71.2592 18.5249L72.9255 8.90674H68.207L64 33.1903H68.7187L70.4344 23.2864H75.9619L79.8635 33.1903H85.3911L80.4802 20.8104L88.6993 8.90674H83.4863L76.8768 18.5249H71.2592Z" fill="white" fill-opacity="0.7"/>
<rect x="132.344" y="0.424561" width="55.4354" height="41.5765" rx="8" fill="black"/>
<path fill-rule="evenodd" clip-rule="evenodd" d="M164.31 6V16.3137C163.224 16.8891 161.207 17.2999 159.772 17.2999C156.825 17.2999 155.312 15.5742 155.312 12.2457V6H151.24V12.2457C151.24 18.3273 153.955 21.4912 159.19 21.4912C161.207 21.4912 162.875 21.0392 164.31 20.5871V26.9562H168.382V6H164.31Z" fill="white"/>
<path fill-rule="evenodd" clip-rule="evenodd" d="M150 35.4828H169.436V31.6248H150V35.4828Z" fill="white"/>
<path fill-rule="evenodd" clip-rule="evenodd" d="M246.137 6L249.92 16.5694L257.312 16.5705V20.1687L251.208 20.1675L255.451 32.0178H251.308L249.533 27.0561H237.476L235.701 32.0178H231.559L235.8 20.1675L229.697 20.1687V16.5705L237.087 16.5694L240.873 6H246.137ZM247.067 20.1675H239.943L238.935 22.982H248.074L247.067 20.1675ZM243.505 10.2179L241.231 16.5694H245.779L243.505 10.2179Z" fill="white" fill-opacity="0.7"/>
</svg>
