<svg width="353" height="44" viewBox="0 0 353 44" fill="none" xmlns="http://www.w3.org/2000/svg">
<rect x="-5.96729" y="0.745605" width="57.187" height="42.8902" rx="8" fill="black"/>
<path fill-rule="evenodd" clip-rule="evenodd" d="M12.0923 11.4049H44.608V7.10205H12.0923V11.4049Z" fill="white"/>
<path fill-rule="evenodd" clip-rule="evenodd" d="M12.0918 20.0124H36.4786V15.7095H12.0918V20.0124Z" fill="white"/>
<path fill-rule="evenodd" clip-rule="evenodd" d="M12.0918 28.6195H40.543V24.3167H12.0918V28.6195Z" fill="white"/>
<path fill-rule="evenodd" clip-rule="evenodd" d="M12.0918 37.2228H31.993V32.9199H12.0918V37.2228Z" fill="white"/>
<path fill-rule="evenodd" clip-rule="evenodd" d="M59.8652 12.0187H92.3809V7.71582H59.8652V12.0187Z" fill="white" fill-opacity="0.7"/>
<path fill-rule="evenodd" clip-rule="evenodd" d="M67.9937 20.6212H92.3805V16.3181H67.9937V20.6212Z" fill="white" fill-opacity="0.7"/>
<path fill-rule="evenodd" clip-rule="evenodd" d="M63.9292 29.2283H92.3804V24.9253H63.9292V29.2283Z" fill="white" fill-opacity="0.7"/>
<path fill-rule="evenodd" clip-rule="evenodd" d="M72.4795 37.8334H92.3808V33.5305H72.4795V37.8334Z" fill="white" fill-opacity="0.7"/>
<path fill-rule="evenodd" clip-rule="evenodd" d="M146.573 12.0187H179.089V7.71582H146.573V12.0187Z" fill="white" fill-opacity="0.7"/>
<path fill-rule="evenodd" clip-rule="evenodd" d="M146.572 20.6212H179.088V16.3181H146.572V20.6212Z" fill="white" fill-opacity="0.7"/>
<path fill-rule="evenodd" clip-rule="evenodd" d="M146.572 29.2283H179.088V24.9253H146.572V29.2283Z" fill="white" fill-opacity="0.7"/>
<path fill-rule="evenodd" clip-rule="evenodd" d="M146.572 37.8334H166.474V33.5305H146.572V37.8334Z" fill="white" fill-opacity="0.7"/>
<path fill-rule="evenodd" clip-rule="evenodd" d="M233.281 12.0187H265.797V7.71582H233.281V12.0187Z" fill="white" fill-opacity="0.7"/>
<path fill-rule="evenodd" clip-rule="evenodd" d="M233.281 20.6212H265.797V16.3181H233.281V20.6212Z" fill="white" fill-opacity="0.7"/>
<path fill-rule="evenodd" clip-rule="evenodd" d="M233.281 29.2283H265.797V24.9253H233.281V29.2283Z" fill="white" fill-opacity="0.7"/>
<path fill-rule="evenodd" clip-rule="evenodd" d="M245.896 37.8334H265.798V33.5305H245.896V37.8334Z" fill="white" fill-opacity="0.7"/>
<path fill-rule="evenodd" clip-rule="evenodd" d="M319.992 13.9294H352.508V9.62646H319.992V13.9294Z" fill="white" fill-opacity="0.7"/>
<path fill-rule="evenodd" clip-rule="evenodd" d="M326.087 22.5351H346.41V18.2322H326.087V22.5351Z" fill="white" fill-opacity="0.7"/>
<path fill-rule="evenodd" clip-rule="evenodd" d="M322.023 31.1427H350.475V26.8396H322.023V31.1427Z" fill="white" fill-opacity="0.7"/>
<path fill-rule="evenodd" clip-rule="evenodd" d="M332.184 39.748H340.313V35.4451H332.184V39.748Z" fill="white" fill-opacity="0.7"/>
</svg>
