<svg width="200" height="54" viewBox="0 0 200 54" fill="none" xmlns="http://www.w3.org/2000/svg">
<rect width="54" height="54" rx="16" fill="#6C757D"/>
<path d="M31.4481 40.1224L31.1202 41.5391C29.7796 42.0851 28.7086 42.4614 27.9071 42.668C27.1056 42.8893 26.4208 43 25.8525 43C24.6867 43 23.8124 42.6975 23.2295 42.0924C22.6466 41.4727 22.3552 40.7127 22.3552 39.8125C22.3552 39.4731 22.3843 39.1189 22.4426 38.75C22.5009 38.3811 22.5956 37.9162 22.7268 37.3555L25.0437 27.9479C25.1603 27.4314 25.2696 26.878 25.3716 26.2878C25.4882 25.6975 25.5464 25.1957 25.5464 24.7826C25.5464 23.9562 25.408 23.4102 25.1311 23.1445C24.8689 22.8641 24.3224 22.724 23.4918 22.724C23.1712 22.724 22.7413 22.7756 22.2022 22.8789C21.6776 22.9822 21.2769 23.0707 21 23.1445L21.3279 21.7279C22.4645 21.2114 23.4845 20.8277 24.388 20.5768C25.2914 20.326 26.0055 20.2005 26.5301 20.2005C27.725 20.2005 28.592 20.4883 29.1311 21.0638C29.6703 21.6393 29.9399 22.4141 29.9399 23.388C29.9399 23.6536 29.9107 24.0152 29.8525 24.4727C29.7942 24.9301 29.7067 25.3876 29.5902 25.8451L27.2514 35.2526C27.1056 35.8281 26.9745 36.3963 26.8579 36.957C26.7559 37.503 26.7049 37.9531 26.7049 38.3073C26.7049 39.1484 26.8871 39.724 27.2514 40.0339C27.6302 40.3438 28.235 40.4987 29.0656 40.4987C29.3424 40.4987 29.7359 40.4618 30.2459 40.388C30.7705 40.3142 31.1712 40.2257 31.4481 40.1224ZM33 11.8333C33 12.6745 32.7304 13.4123 32.1913 14.0469C31.6521 14.6667 30.9818 14.9766 30.1803 14.9766C29.4372 14.9766 28.796 14.6814 28.2568 14.0911C27.7177 13.4861 27.4481 12.7999 27.4481 12.0326C27.4481 11.2209 27.7177 10.5126 28.2568 9.90755C28.796 9.30252 29.4372 9 30.1803 9C31.0109 9 31.6885 9.28776 32.2131 9.86328C32.7377 10.424 33 11.0807 33 11.8333Z" fill="white"/>
<path d="M100.948 12.3V27.7002C100.948 28.7025 101.12 29.6314 101.462 30.4869C101.804 31.3425 102.281 32.0881 102.892 32.7236C103.503 33.3347 104.224 33.8114 105.055 34.1536C105.886 34.4959 106.778 34.667 107.732 34.667C108.661 34.667 109.529 34.4836 110.335 34.117C111.166 33.7503 111.887 33.2614 112.499 32.6503C113.11 32.0147 113.599 31.2692 113.965 30.4136C114.332 29.558 114.515 28.6536 114.515 27.7002V12.3H118.549V27.7002C118.549 29.2647 118.28 30.6947 117.742 31.9903C117.229 33.2859 116.495 34.4103 115.542 35.3637C114.589 36.2926 113.452 37.0259 112.132 37.5637C110.812 38.077 109.345 38.3337 107.732 38.3337C106.118 38.3337 104.652 38.077 103.332 37.5637C102.012 37.0259 100.875 36.2926 99.9217 35.3637C98.9684 34.4103 98.2228 33.2859 97.685 31.9903C97.1717 30.6947 96.915 29.2647 96.915 27.7002V12.3H100.948Z" fill="#B3B3B3"/>
<path d="M97.1923 43.4224H119.166V46.15H97.1923V43.4224Z" fill="#B3B3B3"/>
<path d="M174 36.25C174.453 36.8815 175.027 37.4556 175.72 37.9722C176.28 38.4028 177 38.8046 177.88 39.1778C178.76 39.5222 179.8 39.6944 181 39.6944C181.907 39.6944 182.707 39.5796 183.4 39.35C184.093 39.0917 184.68 38.7616 185.16 38.3597C185.64 37.9292 186 37.4412 186.24 36.8958C186.48 36.3505 186.6 35.7764 186.6 35.1736C186.6 34.3412 186.387 33.6667 185.96 33.15C185.533 32.6046 184.973 32.1454 184.28 31.7722C183.587 31.3991 182.8 31.0833 181.92 30.825C181.04 30.5667 180.133 30.294 179.2 30.0069C178.267 29.6912 177.36 29.3324 176.48 28.9306C175.6 28.5 174.813 27.969 174.12 27.3375C173.427 26.6773 172.867 25.8736 172.44 24.9264C172.013 23.9792 171.8 22.8023 171.8 21.3958C171.8 20.2764 172.013 19.2144 172.44 18.2097C172.893 17.1764 173.533 16.2722 174.36 15.4972C175.187 14.7222 176.187 14.1194 177.36 13.6889C178.56 13.2296 179.907 13 181.4 13C182.867 13 184.147 13.2009 185.24 13.6028C186.333 14.0046 187.24 14.4495 187.96 14.9375C188.84 15.5116 189.587 16.1574 190.2 16.875L187.2 20.1042C186.8 19.5875 186.307 19.1139 185.72 18.6833C185.24 18.3389 184.64 18.0231 183.92 17.7361C183.2 17.4491 182.36 17.3056 181.4 17.3056C179.693 17.3056 178.4 17.7218 177.52 18.5542C176.64 19.3579 176.2 20.3051 176.2 21.3958C176.2 22.2282 176.413 22.9171 176.84 23.4625C177.267 23.9792 177.827 24.4241 178.52 24.7972C179.213 25.1704 180 25.4861 180.88 25.7444C181.76 26.0028 182.667 26.2898 183.6 26.6056C184.533 26.8926 185.44 27.2514 186.32 27.6819C187.2 28.0838 187.987 28.6148 188.68 29.275C189.373 29.9065 189.933 30.6958 190.36 31.6431C190.787 32.5903 191 33.7671 191 35.1736C191 36.3505 190.76 37.4843 190.28 38.575C189.827 39.637 189.173 40.5699 188.32 41.3736C187.467 42.1773 186.413 42.8232 185.16 43.3111C183.933 43.7704 182.547 44 181 44C179.293 44 177.813 43.7704 176.56 43.3111C175.333 42.8232 174.293 42.2921 173.44 41.7181C172.48 41.0579 171.667 40.3116 171 39.4792L174 36.25Z" fill="#B3B3B3"/>
<path fill-rule="evenodd" clip-rule="evenodd" d="M200 31H162V26H200V31Z" fill="#B3B3B3"/>
</svg>
