<svg width="82" height="28" viewBox="0 0 82 28" fill="none" xmlns="http://www.w3.org/2000/svg">
<g clip-path="url(#clip0_83_1174)">
<path d="M34.8952 14.3591C34.8952 18.2456 31.8835 21.1095 28.1875 21.1095C24.4914 21.1095 21.4797 18.2456 21.4797 14.3591C21.4797 10.4452 24.4914 7.60864 28.1875 7.60864C31.8835 7.60864 34.8952 10.4452 34.8952 14.3591ZM31.9589 14.3591C31.9589 11.9304 30.2133 10.2686 28.1875 10.2686C26.1616 10.2686 24.4161 11.9304 24.4161 14.3591C24.4161 16.7634 26.1616 18.4495 28.1875 18.4495C30.2133 18.4495 31.9589 16.7604 31.9589 14.3591Z" fill="#353546"/>
<path d="M49.3659 14.3591C49.3659 18.2456 46.3542 21.1095 42.6582 21.1095C38.9621 21.1095 35.9504 18.2456 35.9504 14.3591C35.9504 10.4482 38.9621 7.60864 42.6582 7.60864C46.3542 7.60864 49.3659 10.4452 49.3659 14.3591ZM46.4296 14.3591C46.4296 11.9304 44.684 10.2686 42.6582 10.2686C40.6323 10.2686 38.8868 11.9304 38.8868 14.3591C38.8868 16.7634 40.6323 18.4495 42.6582 18.4495C44.684 18.4495 46.4296 16.7604 46.4296 14.3591Z" fill="#353546"/>
<path d="M63.2336 8.01647V20.1356C63.2336 25.1208 60.3214 27.1569 56.8786 27.1569C53.6378 27.1569 51.6872 24.9686 50.9517 23.1791L53.5081 22.1047C53.9634 23.2034 55.0788 24.4999 56.8756 24.4999C59.0793 24.4999 60.445 23.1273 60.445 20.5434V19.5726H60.3425C59.6853 20.3912 58.4191 21.1065 56.8213 21.1065C53.478 21.1065 50.415 18.1665 50.415 14.3834C50.415 10.573 53.478 7.60864 56.8213 7.60864C58.4161 7.60864 59.6822 8.32386 60.3425 9.11821H60.445V8.01951H63.2336V8.01647ZM60.653 14.3834C60.653 12.0065 59.0823 10.2686 57.0836 10.2686C55.0577 10.2686 53.3604 12.0065 53.3604 14.3834C53.3604 16.736 55.0577 18.4495 57.0836 18.4495C59.0823 18.4495 60.653 16.736 60.653 14.3834Z" fill="#353546"/>
<path d="M67.8308 0.913086V20.6957H64.9668V0.913086H67.8308Z" fill="#353546"/>
<path d="M78.9914 16.5809L81.2705 18.1148C80.5349 19.2135 78.7623 21.1066 75.6993 21.1066C71.9008 21.1066 69.064 18.1422 69.064 14.3561C69.064 10.3418 71.9249 7.60571 75.3707 7.60571C78.8407 7.60571 80.5379 10.3935 81.0926 11.9001L81.3971 12.667L72.4585 16.4044C73.1429 17.7588 74.2071 18.4496 75.6993 18.4496C77.1946 18.4496 78.2317 17.707 78.9914 16.5809ZM71.9762 14.1522L77.9513 11.6475C77.6227 10.8044 76.6339 10.217 75.4702 10.217C73.9779 10.217 71.9008 11.547 71.9762 14.1522Z" fill="#353546"/>
<path d="M10.639 12.6031V9.73915H20.1986C20.2921 10.2383 20.3403 10.8287 20.3403 11.4678C20.3403 13.6165 19.7585 16.2735 17.8833 18.1665C16.0595 20.0839 13.7291 21.1065 10.642 21.1065C4.92011 21.1065 0.108643 16.4013 0.108643 10.6248C0.108643 4.84828 4.92011 0.143066 10.642 0.143066C13.8075 0.143066 16.0625 1.39698 17.7567 3.03133L15.755 5.0522C14.54 3.90176 12.894 3.00698 10.639 3.00698C6.46063 3.00698 3.19269 6.40654 3.19269 10.6248C3.19269 14.8431 6.46063 18.2426 10.639 18.2426C13.3492 18.2426 14.8928 17.1439 15.8816 16.1457C16.6835 15.3361 17.2111 14.1796 17.4191 12.6L10.639 12.6031Z" fill="#353546"/>
</g>
<defs>
<clipPath id="clip0_83_1174">
<rect width="82" height="28" fill="white"/>
</clipPath>
</defs>
</svg>
