<svg width="12" height="34" viewBox="0 0 12 34" fill="none" xmlns="http://www.w3.org/2000/svg">
<path d="M10.4481 31.1224L10.1202 32.5391C8.7796 33.0851 7.70856 33.4614 6.9071 33.668C6.10565 33.8893 5.42076 34 4.85246 34C3.6867 34 2.81239 33.6975 2.22951 33.0924C1.64663 32.4727 1.35519 31.7127 1.35519 30.8125C1.35519 30.4731 1.38434 30.1189 1.44262 29.75C1.50091 29.3811 1.59563 28.9162 1.72678 28.3555L4.04372 18.9479C4.16029 18.4314 4.26958 17.878 4.37158 17.2878C4.48816 16.6975 4.54645 16.1957 4.54645 15.7826C4.54645 14.9562 4.40801 14.4102 4.13115 14.1445C3.86885 13.8641 3.3224 13.724 2.4918 13.724C2.17122 13.724 1.74135 13.7756 1.20219 13.8789C0.677596 13.9822 0.276867 14.0707 0 14.1445L0.327869 12.7279C1.46448 12.2114 2.48452 11.8277 3.38798 11.5768C4.29144 11.326 5.00546 11.2005 5.53005 11.2005C6.72495 11.2005 7.59199 11.4883 8.13115 12.0638C8.67031 12.6393 8.93989 13.4141 8.93989 14.388C8.93989 14.6536 8.91075 15.0152 8.85246 15.4727C8.79417 15.9301 8.70674 16.3876 8.59016 16.8451L6.25137 26.2526C6.10565 26.8281 5.9745 27.3963 5.85792 27.957C5.75592 28.503 5.70492 28.9531 5.70492 29.3073C5.70492 30.1484 5.88707 30.724 6.25137 31.0339C6.63024 31.3438 7.23497 31.4987 8.06557 31.4987C8.34244 31.4987 8.73588 31.4618 9.2459 31.388C9.77049 31.3142 10.1712 31.2257 10.4481 31.1224ZM12 2.83333C12 3.67448 11.7304 4.41233 11.1913 5.04688C10.6521 5.66667 9.98178 5.97656 9.18033 5.97656C8.43716 5.97656 7.79599 5.68142 7.25683 5.09115C6.71767 4.48611 6.44809 3.79991 6.44809 3.03255C6.44809 2.22092 6.71767 1.51259 7.25683 0.907552C7.79599 0.302517 8.43716 0 9.18033 0C10.0109 0 10.6885 0.28776 11.2131 0.863281C11.7377 1.42405 12 2.08073 12 2.83333Z" fill="white"/>
</svg>
