<svg width="967" height="202" viewBox="0 0 967 202" fill="none" xmlns="http://www.w3.org/2000/svg">
<path d="M0 198.509L73.3819 1H110.74L184.122 198.509H149.432L132.087 153.227H52.0344L34.6896 198.509H0ZM120.079 122.596L92.3278 42.1653H91.7941L64.0424 122.596H120.079Z" fill="#2C2D2E"/>
<path d="M244.151 201.173C237.747 201.173 231.876 200.196 226.539 198.243C221.38 196.112 216.933 193.359 213.197 189.985C209.461 186.611 206.526 182.705 204.391 178.265C202.435 173.648 201.456 168.854 201.456 163.882C201.456 153.227 205.014 144.171 212.13 136.713C219.424 129.255 228.763 124.549 240.148 122.596L284.178 114.605V114.339C284.178 112.208 283.555 109.988 282.31 107.68C281.064 105.194 279.285 103.063 276.973 101.287C274.66 99.3336 271.992 97.7354 268.968 96.4924C265.943 95.2494 262.563 94.6279 258.827 94.6279C254.024 94.6279 249.666 95.5157 245.752 97.2915C241.838 98.8896 238.458 100.665 235.612 102.619C232.232 104.927 229.297 107.591 226.806 110.61L208.127 91.9642C211.863 86.9921 216.399 82.5528 221.736 78.6462C226.184 75.2722 231.609 72.2535 238.014 69.5899C244.418 66.7487 251.801 65.3281 260.162 65.3281C268.167 65.3281 275.461 66.7487 282.043 69.5899C288.803 72.2535 294.584 75.9825 299.388 80.777C304.369 85.394 308.193 90.8988 310.862 97.2915C313.53 103.507 314.865 110.166 314.865 117.269V198.509H284.178V181.195H282.843C280.353 184.924 277.24 188.21 273.504 191.051C270.302 193.537 266.299 195.845 261.496 197.976C256.693 200.107 250.911 201.173 244.151 201.173ZM253.491 143.905C245.485 145.325 239.882 147.367 236.679 150.031C233.655 152.517 232.143 155.802 232.143 159.886C232.143 163.971 233.922 167.7 237.48 171.074C241.216 174.27 246.108 175.868 252.156 175.868C256.426 175.868 260.517 175.069 264.431 173.471C268.345 171.695 271.725 169.298 274.571 166.279C277.595 163.26 279.908 159.709 281.509 155.625C283.288 151.54 284.178 147.19 284.178 142.573V138.578L253.491 143.905Z" fill="#2C2D2E"/>
<path d="M849.982 200.889C845.861 200.889 841.658 199.984 837.372 198.173C833.086 196.198 829.377 193.399 826.245 189.778L829.954 186.074C832.921 189.037 835.806 190.519 838.608 190.519C841.081 190.519 842.894 189.613 844.048 187.802C845.366 185.992 846.603 182.37 847.757 176.938L850.476 162.616C851.96 154.55 854.68 148.542 858.636 144.591C862.592 140.64 869.021 138.006 877.922 136.689V135.455C869.186 133.973 862.015 130.763 856.411 125.825C850.971 120.886 848.251 113.643 848.251 104.095C848.251 93.066 851.96 84.7529 859.378 79.156C866.795 73.3944 878.829 70.5137 895.477 70.5137H966.193V75.6991L948.39 78.1683V190.766L966.193 193.482V198.42H905.862V193.482L923.665 190.766V139.652H900.917C893.829 139.652 888.307 141.216 884.351 144.344C880.559 147.472 878.087 152.657 876.933 159.9L873.224 180.889C871.905 188.132 869.515 193.317 866.054 196.445C862.592 199.408 857.235 200.889 849.982 200.889ZM923.665 133.479V76.6868H902.895C893.334 76.6868 886.246 78.8268 881.631 83.1068C877.18 87.3868 874.955 94.2184 874.955 103.601V106.811C874.955 116.03 877.263 122.779 881.878 127.059C886.494 131.339 892.84 133.479 900.917 133.479H923.665Z" fill="#2C2D2E"/>
<path d="M564.827 201.172C552.794 201.172 542.327 196.152 533.426 186.11L537.629 181.665C543.069 187.262 548.261 190.061 553.206 190.061C554.195 190.061 554.937 189.978 555.432 189.814C558.234 189.155 560.377 187.18 561.86 183.888C563.344 180.595 564.745 174.752 566.064 166.356L569.773 142.651C571.751 130.634 576.201 121.745 583.125 115.984C590.213 110.222 600.597 106.354 614.279 104.378V102.897C579.828 98.2874 562.602 81.8259 562.602 53.5119C562.602 35.7334 568.866 22.5641 581.394 14.0041C593.921 5.44408 613.62 1.16406 640.488 1.16406H708.484V6.59638L685.736 10.0533V189.814L708.484 193.518V198.703H635.79V193.518L658.538 189.814V105.613H639.252C627.548 105.613 618.4 108.247 611.806 113.514C605.378 118.618 601.339 127.013 599.691 138.701L594.993 171.788C593.345 182.488 590.213 190.061 585.597 194.505C580.982 198.95 574.058 201.172 564.827 201.172ZM658.538 99.6867V7.33715H640.488C608.51 7.33715 592.52 21.0003 592.52 48.3265V56.2281C592.52 70.2204 596.064 81.0028 603.152 88.5751C610.24 95.9828 619.883 99.6867 632.082 99.6867H658.538Z" fill="#2C2D2E"/>
<mask id="mask0_170_912" style="mask-type:alpha" maskUnits="userSpaceOnUse" x="0" y="1" width="315" height="201">
<path d="M0 198.509L73.3819 1H110.74L184.122 198.509H149.432L132.087 153.227H52.0344L34.6896 198.509H0ZM120.079 122.596L92.3278 42.1653H91.7941L64.0424 122.596H120.079Z" fill="#2C2D2E"/>
<path d="M244.151 201.172C237.747 201.172 231.876 200.196 226.539 198.243C221.38 196.112 216.933 193.359 213.197 189.985C209.462 186.611 206.526 182.705 204.391 178.265C202.435 173.648 201.456 168.854 201.456 163.882C201.456 153.227 205.014 144.171 212.13 136.713C219.424 129.255 228.763 124.549 240.148 122.596L284.178 114.605V114.339C284.178 112.208 283.555 109.988 282.31 107.68C281.064 105.194 279.285 103.063 276.973 101.287C274.66 99.3336 271.992 97.7354 268.968 96.4924C265.943 95.2494 262.563 94.6279 258.828 94.6279C254.024 94.6279 249.666 95.5157 245.752 97.2915C241.838 98.8896 238.458 100.665 235.612 102.619C232.232 104.927 229.297 107.591 226.806 110.61L208.127 91.9642C211.863 86.9921 216.399 82.5528 221.736 78.6461C226.184 75.2722 231.609 72.2535 238.014 69.5899C244.418 66.7487 251.801 65.3281 260.162 65.3281C268.167 65.3281 275.461 66.7487 282.043 69.5899C288.803 72.2535 294.584 75.9825 299.388 80.777C304.369 85.394 308.193 90.8988 310.862 97.2915C313.53 103.507 314.865 110.166 314.865 117.269V198.509H284.178V181.195H282.843C280.353 184.924 277.24 188.21 273.504 191.051C270.302 193.537 266.299 195.845 261.496 197.976C256.693 200.107 250.911 201.172 244.151 201.172ZM253.491 143.905C245.485 145.325 239.882 147.367 236.68 150.031C233.655 152.517 232.143 155.802 232.143 159.886C232.143 163.971 233.922 167.7 237.48 171.074C241.216 174.27 246.108 175.868 252.156 175.868C256.426 175.868 260.518 175.069 264.431 173.471C268.345 171.695 271.725 169.298 274.571 166.279C277.595 163.26 279.908 159.709 281.509 155.625C283.288 151.54 284.178 147.19 284.178 142.573V138.578L253.491 143.905Z" fill="#2C2D2E"/>
</mask>
<g mask="url(#mask0_170_912)">
<path d="M76.1626 0.15918H201.796V70.5139H76.1626V0.15918Z" fill="#6C757D"/>
</g>
<mask id="mask1_170_912" style="mask-type:alpha" maskUnits="userSpaceOnUse" x="825" y="70" width="141" height="132">
<path d="M849.57 201.172C845.449 201.172 841.245 200.267 836.96 198.456C832.674 196.481 828.965 193.682 825.833 190.061L829.542 186.357C832.509 189.32 835.394 190.801 838.196 190.801C840.668 190.801 842.482 189.896 843.636 188.085C844.954 186.274 846.191 182.653 847.344 177.221L850.064 162.899C851.548 154.833 854.268 148.824 858.224 144.874C862.18 140.923 868.609 138.289 877.51 136.972V135.737C868.773 134.256 861.603 131.046 855.998 126.107C850.559 121.169 847.839 113.926 847.839 104.378C847.839 93.3488 851.548 85.0357 858.966 79.4387C866.383 73.6772 878.416 70.7964 895.065 70.7964H965.781V75.9818L947.978 78.451V191.048L965.781 193.764V198.703H905.45V193.764L923.252 191.048V139.935H900.505C893.417 139.935 887.895 141.499 883.939 144.627C880.147 147.754 877.675 152.94 876.521 160.183L872.812 181.171C871.493 188.414 869.103 193.6 865.641 196.728C862.18 199.691 856.823 201.172 849.57 201.172ZM923.252 133.762V76.9695H902.483C892.922 76.9695 885.834 79.1095 881.219 83.3895C876.768 87.6695 874.543 94.5011 874.543 103.884V107.094C874.543 116.313 876.85 123.062 881.466 127.342C886.081 131.622 892.428 133.762 900.505 133.762H923.252Z" fill="#005FF9"/>
</mask>
<g mask="url(#mask1_170_912)">
<path d="M825.62 135.843L878.386 136.848L898.487 140.366L905.02 206.198H825.62V135.843Z" fill="#6C757D"/>
</g>
<mask id="mask2_170_912" style="mask-type:alpha" maskUnits="userSpaceOnUse" x="532" y="0" width="178" height="203">
<path d="M564.827 201.173C552.794 201.173 542.327 196.152 533.426 186.11L537.629 181.666C543.069 187.263 548.261 190.061 553.206 190.061C554.195 190.061 554.937 189.979 555.432 189.814C558.234 189.156 560.377 187.18 561.86 183.888C563.344 180.596 564.745 174.752 566.064 166.356L569.773 142.652C571.751 130.635 576.201 121.745 583.125 115.984C590.213 110.222 600.597 106.354 614.279 104.378V102.897C579.828 98.2877 562.602 81.8261 562.602 53.5122C562.602 35.7336 568.866 22.5644 581.394 14.0043C593.921 5.44432 613.62 1.16431 640.488 1.16431H708.484V6.59662L685.736 10.0536V189.814L708.484 193.518V198.703H635.79V193.518L658.538 189.814V105.613H639.252C627.548 105.613 618.4 108.247 611.806 113.515C605.378 118.618 601.339 127.013 599.691 138.701L594.993 171.789C593.345 182.489 590.213 190.061 585.597 194.506C580.982 198.95 574.058 201.173 564.827 201.173ZM658.538 99.6869V7.3374H640.488C608.51 7.3374 592.52 21.0005 592.52 48.3268V56.2283C592.52 70.2207 596.064 81.003 603.152 88.5753C610.24 95.9831 619.883 99.6869 632.082 99.6869H658.538Z" fill="#005FF9" stroke="#005FF9" stroke-width="1.8"/>
</mask>
<g mask="url(#mask2_170_912)">
<rect x="518" y="-13" width="199" height="83" fill="#6C757D"/>
</g>
</svg>
