<svg width="92" height="41" viewBox="0 0 92 41" fill="none" xmlns="http://www.w3.org/2000/svg">
<path d="M30.7161 31.0088C30.0176 31.4685 29.0226 32.0482 27.7525 32.548C23.9633 34.0273 20.5339 33.6075 19.2849 33.4076C15.411 32.7879 12.8919 30.9088 12.3839 30.509C11.7065 29.9893 9.94946 28.53 8.67933 26.1511C8.46764 25.7513 5.29231 21.3335 8.15011 14.5568C11.0079 7.78016 17.9513 5.88109 22.6508 5.56124C27.943 5.18143 32.8119 7.26041 36.961 9.29941C38.3369 9.97908 39.6918 10.7187 41.0466 11.4384C41.0889 11.4384 41.1312 11.4583 41.1947 11.4583C41.3006 11.4783 41.3429 11.4983 41.3641 11.4783C41.4064 11.4583 41.3853 11.3784 41.3641 11.3184C41.3429 11.2385 41.3006 11.1985 41.2794 11.1585C39.6706 9.85913 38.1253 8.4998 36.4529 7.2804C31.1607 3.46228 25.1699 1.50324 18.544 2.06296C12.7649 2.56272 6.58361 6.08099 3.34477 11.8582C2.81555 12.8177 1.03736 16.216 1.1432 20.8537C1.27022 26.9907 4.57256 31.1687 5.60984 32.3681C9.69543 37.1657 15.3264 38.9648 19.0097 39.3447C21.55 39.6045 23.8363 39.3247 24.556 39.2247C27.2868 38.8449 29.4672 38.0253 30.9067 37.3656C30.8432 35.2667 30.7797 33.1277 30.7161 31.0088Z" fill="white"/>
<path d="M61.3475 9.29894C62.0884 8.83917 63.168 8.27944 64.544 7.79968C68.6931 6.38038 72.2495 7.00007 73.0116 7.14C76.8643 7.85965 79.3199 9.7987 79.8068 10.1985C80.463 10.7382 82.1777 12.2175 83.3843 14.6563C83.5749 15.0561 86.6443 19.5339 83.596 26.2506C80.5689 32.9673 73.5831 34.6865 68.8836 34.9064C63.5703 35.1662 58.7861 32.9873 54.7005 30.8284C53.3457 30.1087 52.012 29.3491 50.6784 28.6095C50.6361 28.6095 50.5937 28.5895 50.5302 28.5895C50.4244 28.5695 50.382 28.5495 50.3609 28.5695C50.3185 28.5895 50.3397 28.6694 50.3609 28.7294C50.382 28.8094 50.4032 28.8493 50.4455 28.8893C52.012 30.2287 53.515 31.628 55.1662 32.8674C60.3314 36.7854 66.2587 38.8844 72.8846 38.4846C78.6848 38.1248 84.9297 34.7464 88.3167 29.0692C88.8882 28.1097 90.7511 24.7713 90.7723 20.1336C90.8146 13.9966 87.6181 9.75872 86.6232 8.53932C82.6646 3.66171 77.0972 1.72266 73.435 1.26289C70.9794 0.943047 68.8201 1.14295 67.9099 1.2429C64.9039 1.60272 62.5753 2.48229 61.0723 3.18195C61.1782 5.18097 61.2628 7.23995 61.3475 9.29894Z" fill="white"/>
<path d="M59.7175 2.20223C57.9181 2.90188 56.0341 3.44162 54.3617 4.32119C50.2761 6.44015 47.3548 9.71854 44.8781 13.3567C42.7188 16.5152 40.7501 19.7936 38.5062 22.9121C36.5375 25.6307 34.336 28.1495 31.7322 30.2485L31.9015 36.9252C33.0658 36.1056 34.9075 34.7063 36.8762 32.7272C40.2632 29.3089 41.1735 27.03 47.7994 15.2158C47.7994 15.2158 52.5835 6.66004 57.6006 3.82143C58.1721 3.50159 58.7437 3.18175 58.7437 3.18175C59.2094 2.94186 59.5904 2.72197 59.908 2.56205C60.0138 2.52207 60.0773 2.44211 60.0773 2.38214C60.0562 2.28219 59.908 2.16225 59.7175 2.20223Z" fill="white"/>
<path d="M32.3037 38.0448C34.1031 37.3452 35.9871 36.8254 37.6806 35.9458C41.7662 33.8269 44.7087 30.5685 47.1855 26.9103C49.3447 23.7518 51.3346 20.4734 53.5785 17.375C55.5472 14.6563 57.7487 12.1575 60.3525 10.0586L60.1832 3.38184C58.4261 4.58125 56.7538 6.00055 55.1873 7.57977C50.5513 12.2375 47.6512 17.9147 44.9204 23.6719C44.6452 24.2316 44.0525 25.6909 42.9517 27.51C41.6815 29.609 40.4114 31.1082 39.734 31.8678C39.1201 32.5475 38.2099 33.567 36.855 34.6865C36.855 34.6865 35.1192 36.1058 33.2563 37.1053C32.4942 37.5051 32.1344 37.5251 32.092 37.725C32.1132 37.7649 32.1344 37.8649 32.3037 38.0448Z" fill="white"/>
<path d="M10.0554 23.2513V22.7316L10.7752 22.6116V17.794L10.0554 17.674V17.1543H12.9344C13.4001 17.1543 13.8023 17.2143 14.1198 17.3542C14.4374 17.4941 14.6914 17.674 14.8608 17.9339C15.0301 18.1938 15.1148 18.4936 15.1148 18.8535C15.1148 19.2133 15.0301 19.5131 14.8608 19.753C14.6914 19.9929 14.4585 20.1728 14.1622 20.3127C13.8658 20.4527 13.5059 20.5126 13.0826 20.5126L11.6431 20.5326V22.6116L12.3628 22.7316V23.2513H10.0554ZM11.6643 19.873H12.8497C13.3366 19.873 13.6965 19.793 13.9082 19.6131C14.1198 19.4332 14.2469 19.1733 14.2469 18.8335C14.2469 18.5136 14.141 18.2538 13.9293 18.0738C13.7176 17.8939 13.3789 17.794 12.9344 17.794H11.6431V19.873H11.6643ZM14.3315 23.2513L12.8921 20.1928H13.76L14.9454 22.6316L15.39 22.7116V23.2513H14.3315Z" fill="white"/>
<path d="M16.1521 23.2518V22.732L16.8718 22.6121V17.7944L16.1521 17.6745V17.1348H20.9363V18.594H20.2377L20.1318 17.7545H17.7398V19.7535H20.1318V20.4132H17.7398V22.6321H20.28L20.3859 21.7925H21.0844V23.2518H16.1521Z" fill="white"/>
<path d="M21.9312 23.2518V22.732L22.6509 22.6121V17.7944L21.9312 17.6745V17.1348H22.6509H23.8152L25.8897 21.7725H25.9109L27.9219 17.1348H29.8695V17.6745L29.1497 17.7944V22.6121L29.8695 22.732V23.2518H27.5409V22.732L28.303 22.6121V20.8329V18.2742H28.2818L26.1861 23.0519H25.5934L23.413 18.2942H23.3918L23.413 20.8529V22.6321L24.1962 22.752V23.2718H21.9312V23.2518Z" fill="white"/>
<path d="M33.2566 23.3517C32.8332 23.3517 32.4733 23.2717 32.1346 23.1318C31.7959 22.9718 31.5207 22.7719 31.2879 22.4921C31.055 22.2122 30.8857 21.8924 30.7586 21.5126C30.6316 21.1327 30.5681 20.713 30.5681 20.2532V20.1732C30.5681 19.7134 30.6316 19.3136 30.7586 18.9338C30.8857 18.554 31.055 18.2342 31.2879 17.9543C31.5207 17.6744 31.7959 17.4546 32.1346 17.3146C32.4733 17.1547 32.8332 17.0947 33.2566 17.0947C33.7011 17.0947 34.0822 17.1747 34.4209 17.3146C34.7596 17.4745 35.0348 17.6744 35.2676 17.9543C35.5005 18.2342 35.6698 18.554 35.7757 18.9338C35.8815 19.3136 35.945 19.7334 35.945 20.1732V20.2532C35.945 20.713 35.8815 21.1327 35.7757 21.5126C35.6698 21.8924 35.4793 22.2122 35.2676 22.4921C35.0348 22.7719 34.7596 22.9718 34.4209 23.1318C34.0822 23.2717 33.7011 23.3517 33.2566 23.3517ZM33.2566 22.652C33.6799 22.652 34.0398 22.552 34.2938 22.3521C34.569 22.1522 34.7596 21.8724 34.8866 21.5126C35.0136 21.1527 35.0771 20.7329 35.0771 20.2532V20.1532C35.0771 19.6735 35.0136 19.2537 34.8866 18.8938C34.7596 18.534 34.569 18.2542 34.2938 18.0543C34.0186 17.8544 33.6799 17.7544 33.2566 17.7544C32.8755 17.7544 32.5368 17.8544 32.2616 18.0543C31.9864 18.2542 31.7959 18.534 31.6477 18.8938C31.4995 19.2537 31.436 19.6735 31.436 20.1332V20.2332C31.436 20.713 31.4995 21.1327 31.6477 21.4926C31.7959 21.8524 31.9864 22.1323 32.2616 22.3322C32.5368 22.552 32.8544 22.652 33.2566 22.652Z" fill="white"/>
<path d="M57.2409 23.3521C56.8387 23.3521 56.4577 23.2921 56.0978 23.1922C55.738 23.0922 55.3781 22.9123 55.0605 22.6924V21.3931H55.7379L55.8861 22.3526C56.0767 22.4725 56.2883 22.5525 56.5212 22.6125C56.7541 22.6724 56.9869 22.7124 57.2409 22.7124C57.5373 22.7124 57.7913 22.6724 58.003 22.5925C58.2147 22.5125 58.3629 22.3926 58.4687 22.2327C58.5746 22.0727 58.6381 21.9128 58.6381 21.7129C58.6381 21.533 58.5957 21.3531 58.4899 21.2132C58.4052 21.0732 58.2359 20.9533 58.0242 20.8334C57.8125 20.7334 57.5161 20.6334 57.1351 20.5535C56.6905 20.4535 56.3095 20.3336 56.0131 20.1537C55.7168 19.9938 55.4839 19.7939 55.3146 19.554C55.1664 19.3141 55.0817 19.0542 55.0817 18.7544C55.0817 18.4345 55.1664 18.1547 55.3569 17.8948C55.5474 17.6349 55.7803 17.435 56.0978 17.2951C56.4154 17.1552 56.7964 17.0752 57.2198 17.0752C57.6643 17.0752 58.0665 17.1352 58.4264 17.2751C58.7651 17.415 59.0615 17.555 59.2943 17.7549V18.9743H58.6169L58.4687 18.0947C58.3417 17.9947 58.1724 17.9148 57.9607 17.8348C57.7702 17.7749 57.5161 17.7349 57.2198 17.7349C56.9657 17.7349 56.7541 17.7749 56.5635 17.8548C56.373 17.9348 56.2248 18.0547 56.119 18.1946C56.0131 18.3346 55.9496 18.5145 55.9496 18.7144C55.9496 18.8943 55.992 19.0542 56.0978 19.1742C56.2037 19.3141 56.3519 19.414 56.5635 19.514C56.7752 19.6139 57.0716 19.7139 57.4315 19.7939C58.1089 19.9538 58.6381 20.1937 58.9768 20.4935C59.3367 20.8134 59.506 21.1932 59.506 21.6529C59.506 21.9728 59.4213 22.2726 59.2308 22.5325C59.0403 22.7924 58.7863 22.9923 58.4476 23.1322C58.1089 23.2722 57.6855 23.3521 57.2409 23.3521Z" fill="white"/>
<path d="M61.7922 23.2518V22.732L62.512 22.6121V17.7745H61.0513L60.9243 18.614H60.2681V17.1348H65.6238V18.614H64.9887L64.8617 17.7745H63.4011V22.6121L64.1208 22.732V23.2518H61.7922Z" fill="white"/>
<path d="M65.2427 23.2523V22.7325L65.7296 22.6726L67.9946 17.1553H68.7355L70.9583 22.6726L71.424 22.7325V23.2523H69.5611V22.7325L70.048 22.6526L69.6246 21.5331H67.042L66.5975 22.6526L67.0844 22.7325V23.2523H65.2427ZM67.3172 20.8335H69.3706L68.418 18.3547L68.3545 18.2148H68.3333L68.2698 18.3547L67.3172 20.8335Z" fill="white"/>
<path d="M72.0381 23.2523V22.7325L72.7578 22.6126V17.795L72.0381 17.675V17.1553H74.9171C75.3828 17.1553 75.785 17.2152 76.1025 17.3552C76.42 17.4951 76.6741 17.675 76.8434 17.9349C77.0128 18.1948 77.0975 18.4946 77.0975 18.8544C77.0975 19.2143 77.0128 19.5141 76.8434 19.754C76.6741 19.9939 76.4412 20.1738 76.1449 20.3137C75.8485 20.4537 75.4886 20.5136 75.0652 20.5136L73.6258 20.5336V22.6126L74.3455 22.7325V23.2523H72.0381ZM73.6469 19.8739H74.8324C75.3193 19.8739 75.6791 19.794 75.8908 19.6141C76.1025 19.4342 76.2295 19.1743 76.2295 18.8344C76.2295 18.5146 76.1237 18.2547 75.912 18.0748C75.7003 17.8949 75.3616 17.795 74.9171 17.795H73.6258V19.8739H73.6469ZM76.3142 23.2523L74.8747 20.1938H75.7426L76.9281 22.6326L77.3726 22.7125V23.2523H76.3142Z" fill="white"/>
<path d="M79.3625 23.2518V22.732L80.0823 22.6121V17.7745H78.6216L78.4946 18.614H77.8384V17.1348H83.2153V18.614H82.559L82.432 17.7745H80.9714V22.6121L81.6911 22.732V23.2518H79.3625Z" fill="white"/>
</svg>
