<svg width="177" height="23" viewBox="0 0 177 23" fill="none" xmlns="http://www.w3.org/2000/svg">
<path d="M146.502 17.5436L146.155 0.682129H152.416V21.9341H143.414L137.166 4.49302H137.031L137.378 21.9341H131.157V0.682129H140.549L146.362 17.5436H146.502Z" fill="#353546"/>
<path d="M32.6857 2.67201L29.2218 22.1578H22.3933L27.0827 0.682129H38.3318L42.9996 22.1578H36.1981L32.8282 2.67201H32.6857Z" fill="#353546"/>
<path d="M58.9034 22.1578L54.6735 2.85H54.5365L54.3779 22.1578H48.0439L48.6029 0.682129H58.9222L62.0449 17.0986H62.1792L65.3046 0.682129H75.6185L76.1667 22.1578H69.8461L69.6795 2.85H69.5478L65.3207 22.1578H58.9034Z" fill="#353546"/>
<path d="M11.7436 16.0993C11.9908 16.6196 11.9156 17.2882 11.8 17.6921C11.5877 18.4064 11.018 19.1343 9.33574 19.1343C7.75022 19.1343 6.78817 18.363 6.78817 17.1833V15.1044H0.00538229L0 16.7679C0 21.5555 4.43945 23 9.196 23C13.7698 23 17.5374 21.6719 18.1367 18.0938C18.443 16.2385 18.2146 15.0245 18.1098 14.5658C17.043 10.0703 7.44387 8.72854 6.72904 6.21381C6.60811 5.78252 6.64304 5.32612 6.70216 5.08195C6.87684 4.39736 7.43043 3.64203 9.01326 3.64203C10.4913 3.64203 11.3647 4.4179 11.3647 5.59083C11.3647 5.98561 11.3647 6.91666 11.3647 6.91666H17.6718V5.40827C17.6718 0.730231 12.7271 0 9.14493 0C4.64637 0 0.970124 1.26193 0.298295 4.75791C0.115559 5.72319 0.0886848 6.58349 0.354727 7.66058C1.45922 12.0488 10.4429 13.3199 11.7436 16.0993Z" fill="#353546"/>
<path d="M93.9808 16.0605C94.2307 16.5762 94.1501 17.2266 94.0373 17.6305C93.8303 18.3425 93.266 19.059 91.5945 19.059C90.0305 19.059 89.0765 18.2877 89.0765 17.1353L89.0711 15.0747H82.3582L82.3501 16.7154C82.3501 21.4551 86.7492 22.8859 91.4574 22.8859C95.9828 22.8859 99.7155 21.576 100.304 18.0299C100.61 16.1883 100.393 14.9903 100.283 14.5407C99.2211 10.0863 89.7187 8.7582 89.012 6.26857C88.891 5.83956 88.926 5.38773 88.9878 5.15725C89.1678 4.46809 89.7106 3.73101 91.2774 3.73101C92.7419 3.73101 93.5965 4.48863 93.5965 5.65244C93.5965 6.04265 93.5965 6.96457 93.5965 6.96457H99.8553V5.47216C99.8553 0.84432 94.9509 0.118652 91.4037 0.118652C86.9562 0.118652 83.3095 1.36461 82.6511 4.83549C82.4683 5.78707 82.4495 6.6314 82.7102 7.70393C83.7986 12.0465 92.6936 13.3085 93.9808 16.0605Z" fill="#353546"/>
<path d="M115.224 18.9448C116.979 18.9448 117.527 17.9134 117.648 17.3863C117.699 17.1535 117.713 16.8432 117.707 16.5648V0.673096H124.103V16.0787C124.116 16.4735 124.071 17.2859 124.049 17.489C123.6 21.4984 119.868 22.7991 115.221 22.7991C110.57 22.7991 106.834 21.4984 106.391 17.489C106.369 17.2859 106.324 16.4735 106.337 16.0787V0.673096H112.728V16.5648C112.728 16.8432 112.738 17.1558 112.787 17.3863C112.924 17.9134 113.456 18.9448 115.224 18.9448Z" fill="#353546"/>
<path d="M167.981 18.719C169.814 18.719 170.454 17.7354 170.572 17.1627C170.618 16.9162 170.631 16.6173 170.628 16.3457V13.2285H168.032V10.0931H177V15.8574C176.994 16.259 176.984 16.5557 176.909 17.2722C176.487 21.1789 172.496 22.5732 168.013 22.5732C163.523 22.5732 159.538 21.1789 159.11 17.2722C159.038 16.5557 159.027 16.259 159.019 15.8574L159.024 6.81391C159.024 6.43283 159.081 5.75736 159.129 5.39909C159.691 1.3851 163.523 0.0935059 168.013 0.0935059C172.499 0.0935059 176.425 1.37826 176.89 5.39909C176.973 6.08368 176.946 6.81391 176.946 6.81391V7.53045H170.569V6.32786C170.575 6.33014 170.561 5.81669 170.486 5.51091C170.378 5.03626 169.892 3.94548 167.965 3.94548C166.122 3.94548 165.581 4.97693 165.447 5.51091C165.369 5.79387 165.34 6.17724 165.34 6.5241V16.3457C165.334 16.6173 165.353 16.9162 165.404 17.1627C165.514 17.7377 166.151 18.719 167.981 18.719Z" fill="#353546"/>
</svg>
