<svg width="428" height="328" viewBox="0 0 428 328" fill="none" xmlns="http://www.w3.org/2000/svg">
<path d="M40.4769 273.591H39.7704L39.5344 274.257L21.8772 324.067H1.43152L66.0175 147.834H86.8566L151.443 324.067H130.997L113.34 274.257L113.104 273.591H112.397H40.4769ZM46.3094 255.111L45.8368 256.445H47.252H105.622H107.037L106.565 255.111L78.0745 174.697L77.8385 174.031H77.1319H75.7422H75.0356L74.7996 174.697L46.3094 255.111ZM232.377 147.834L232.384 147.834C237.663 147.66 242.51 147.66 246.941 147.66C253.738 147.704 259.655 147.728 264.69 147.042C269.365 146.405 273.37 145.146 276.68 142.656L285.878 153.715C280.121 159.006 273.088 161.584 264.506 162.948C257.432 164.072 249.396 164.362 240.227 164.692C237.785 164.78 235.264 164.871 232.659 164.981C218.522 165.513 208.061 170.49 200.813 179.813C193.604 189.087 189.668 202.543 188.272 219.857L188.185 220.937H189.269H191.006H191.602L191.885 220.413C200.703 204.102 217.424 196.57 235.478 196.57C250.823 196.57 264.354 202.045 274.056 212.649C283.763 223.259 289.721 239.098 289.721 259.97C289.721 280.76 283.847 297.474 273.654 308.978C263.472 320.469 248.902 326.851 231.309 326.851C213.673 326.851 199.031 320.515 188.779 308.154C178.507 295.77 172.549 277.226 172.549 252.66V238.387C172.549 208.708 177.578 186.311 187.541 171.231C197.46 156.216 212.341 148.349 232.377 147.834ZM191.048 259.955L191.048 259.963V259.97C191.048 275.093 194.821 287.691 201.772 296.531C208.744 305.396 218.853 310.402 231.309 310.402C243.678 310.402 253.702 305.44 260.609 296.593C267.495 287.774 271.222 275.177 271.222 259.97C271.222 245.191 267.469 233.443 260.502 225.376C253.518 217.289 243.407 213.02 230.961 213.02C218.811 213.02 208.897 217.295 201.983 225.379C195.087 233.442 191.268 245.182 191.048 259.955ZM384.57 324.067H322.683V192.392H376.231C390.41 192.392 401.903 195.902 409.826 201.945C417.725 207.971 422.136 216.555 422.136 226.9C422.136 234.796 419.554 240.712 415.21 245.044C410.842 249.398 404.618 252.227 397.221 253.769L397.279 255.738C411.615 257.862 427 268.869 427 289.211C427 299.199 423.038 307.881 415.797 314.081C408.546 320.291 397.936 324.067 384.57 324.067ZM340.14 306.269V307.269H341.14H384.57C391.764 307.269 397.661 305.445 401.779 302.011C405.919 298.558 408.154 293.564 408.154 287.471C408.154 280.345 405.957 274.497 401.841 270.431C397.727 266.366 391.806 264.192 384.57 264.192H341.14H340.14V265.192V306.269ZM340.14 247.438V248.438H341.14H376.231C384.569 248.438 391.401 246.606 396.177 243.146C400.989 239.659 403.637 234.57 403.637 228.292C403.637 222.338 400.967 217.509 396.156 214.207C391.384 210.932 384.561 209.19 376.231 209.19H341.14H340.14V210.19V247.438Z" stroke="#626161" stroke-width="2"/>
<path d="M35.694 4.10742L51.6113 41.2479" stroke="#005FF9" stroke-width="2"/>
<path d="M300.554 -18L324.43 10.2975" stroke="#005FF9" stroke-width="2"/>
<path d="M320.893 89.8843C324.976 100.795 326.201 126.188 320.892 142.058" stroke="#005FF9" stroke-width="2"/>
</svg>
