<svg width="36" height="36" viewBox="0 0 36 36" fill="none" xmlns="http://www.w3.org/2000/svg">
<g clip-path="url(#clip0_170_1039)">
<path d="M23.5628 13.625C22.2357 13.625 20.9816 13.8875 19.8149 14.3542L18.7941 9.90624L24.467 4.23333C25.3128 3.41666 25.3128 2.00208 24.467 1.14166C23.6212 0.281245 22.2212 0.287079 21.3753 1.14166L15.7024 6.81458L2.28574 3.72291L0.229492 5.77916L11.0649 11.4375L5.39199 17.125L1.77533 16.6146L0.229492 18.1604L4.86699 20.7271L7.44824 25.3792L8.97949 23.8333L8.48366 20.1875L14.1566 14.5437L15.6441 17.4021C14.4264 18.8985 13.658 20.7096 13.4281 22.6251C13.1982 24.5407 13.5163 26.4821 14.3453 28.2242C15.1744 29.9663 16.4804 31.4375 18.112 32.4672C19.7435 33.4969 21.6335 34.0429 23.5628 34.0417C29.2066 34.0417 33.7712 29.4771 33.7712 23.8333C33.7712 18.1896 29.2066 13.625 23.5628 13.625ZM23.5628 31.125C19.5378 31.125 16.2712 27.8583 16.2712 23.8333C16.2712 19.8083 19.5378 16.5417 23.5628 16.5417C27.5878 16.5417 30.8545 19.8083 30.8545 23.8333C30.8545 27.8583 27.5878 31.125 23.5628 31.125ZM24.292 24.1979V18H22.1045V25.2917L27.3691 28.4417L28.4628 26.6625L24.292 24.1979Z" fill="white"/>
</g>
<defs>
<clipPath id="clip0_170_1039">
<rect width="35" height="35" fill="white" transform="translate(0.229492 0.5)"/>
</clipPath>
</defs>
</svg>
